<?xml version="1.0" standalone="no"?>
<!DOCTYPE svg PUBLIC "-//W3C//DTD SVG 20010904//EN"
 "http://www.w3.org/TR/2001/REC-SVG-20010904/DTD/svg10.dtd">
<svg version="1.0" xmlns="http://www.w3.org/2000/svg"
 width="192.000000pt" height="94.000000pt" viewBox="0 0 192.000000 94.000000"
 preserveAspectRatio="xMidYMid meet">

<g transform="translate(0.000000,94.000000) scale(0.100000,-0.100000)"
fill="#000000" stroke="none">
<path d="M777 773 c-21 -21 22 -33 51 -14 10 6 8 10 -10 14 -29 8 -33 8 -41 0z"/>
<path d="M680 723 c-9 -4 6 -13 39 -24 65 -22 86 -15 34 12 -39 20 -48 21 -73
12z"/>
<path d="M384 687 c10 -7 37 -27 60 -44 25 -20 52 -33 71 -33 l30 0 -30 19
c-16 10 -41 30 -54 45 -18 19 -34 26 -60 25 -32 0 -34 -2 -17 -12z"/>
<path d="M550 693 c8 -3 36 -21 61 -39 28 -21 58 -34 75 -34 l29 1 -37 20
c-21 10 -42 28 -48 39 -8 15 -20 20 -53 19 -23 0 -35 -3 -27 -6z"/>
<path d="M840 646 c0 -11 59 -36 64 -27 3 5 -2 11 -12 14 -9 2 -25 8 -34 12
-10 4 -18 5 -18 1z"/>
<path d="M460 570 c33 -26 52 -25 21 0 -13 11 -28 20 -35 20 -6 0 0 -9 14 -20z"/>
<path d="M1214 476 c-11 -29 0 -51 26 -51 21 0 25 5 25 30 0 24 -5 31 -23 33
-13 2 -24 -3 -28 -12z"/>
<path d="M1007 473 c-4 -3 -7 -19 -7 -35 0 -24 5 -30 30 -34 l30 -6 0 -87 c0
-97 7 -114 41 -109 23 3 24 6 25 103 l2 100 31 3 c27 3 31 7 31 32 0 16 -7 30
-16 34 -21 8 -159 8 -167 -1z"/>
<path d="M1406 403 c-4 -4 -22 -6 -41 -4 -51 4 -79 -28 -71 -82 3 -23 6 -46 7
-52 1 -5 -2 -37 -7 -69 -6 -51 -5 -61 11 -72 49 -36 135 5 135 63 0 42 -15 57
-54 57 -20 0 -36 4 -36 8 0 4 11 8 25 8 32 0 52 32 61 98 5 42 4 52 -8 52 -8
0 -18 -3 -22 -7z m-31 -63 c8 -24 -1 -40 -21 -40 -8 0 -14 10 -14 23 0 40 24
51 35 17z m13 -157 c-2 -12 -12 -18 -28 -18 -16 0 -26 6 -28 18 -3 13 3 17 28
17 25 0 31 -4 28 -17z"/>
<path d="M1202 388 c-14 -14 -16 -40 -3 -53 6 -6 11 -37 13 -70 3 -57 4 -60
31 -63 l27 -3 0 85 c0 64 -4 88 -16 100 -19 19 -36 20 -52 4z"/>
<path d="M1488 386 c-35 -26 -49 -106 -27 -149 16 -30 28 -37 70 -37 46 0 70
18 63 47 -5 18 -10 20 -30 13 -28 -11 -54 -3 -54 15 0 8 8 11 19 8 10 -3 28 0
40 6 29 16 30 85 2 101 -26 14 -62 12 -83 -4z m55 -51 c1 -5 -6 -11 -15 -13
-11 -2 -18 3 -18 13 0 17 30 18 33 0z"/>
<path d="M1615 388 c-3 -7 -1 -51 3 -98 7 -83 8 -85 34 -88 26 -3 27 -1 30 50
2 44 7 55 26 63 16 7 22 18 22 43 0 38 -26 55 -45 29 -11 -15 -14 -16 -25 -2
-15 18 -39 20 -45 3z"/>
<path d="M588 103 c-9 -18 -9 -71 0 -77 6 -3 12 12 14 35 3 37 -5 61 -14 42z"/>
<path d="M1260 71 c0 -34 13 -61 25 -49 7 7 -8 88 -16 88 -5 0 -9 -18 -9 -39z"/>
<path d="M1497 90 c-7 -27 8 -81 17 -60 6 16 2 67 -6 75 -3 3 -8 -3 -11 -15z"/>
<path d="M310 65 c0 -38 17 -52 48 -40 16 6 16 7 0 19 -10 7 -18 23 -18 35 0
12 -6 21 -15 21 -11 0 -15 -11 -15 -35z"/>
<path d="M1080 84 c0 -9 8 -23 18 -31 16 -14 16 -14 0 -9 -10 3 -20 1 -23 -4
-7 -11 31 -24 45 -15 16 10 11 43 -7 48 -17 4 -17 5 0 6 27 2 20 21 -8 21 -17
0 -25 -6 -25 -16z"/>
<path d="M727 83 c-9 -14 5 -63 18 -63 16 0 14 62 -2 67 -6 2 -13 0 -16 -4z"/>
<path d="M1420 61 c0 -32 13 -46 31 -35 8 4 7 9 -2 15 -12 8 -11 11 1 19 13 9
13 11 0 20 -24 16 -30 12 -30 -19z"/>
<path d="M407 73 c-13 -12 -7 -41 10 -47 21 -8 48 17 40 38 -6 16 -38 22 -50
9z m33 -23 c0 -5 -4 -10 -10 -10 -5 0 -10 5 -10 10 0 6 5 10 10 10 6 0 10 -4
10 -10z"/>
<path d="M497 73 c-2 -5 -4 -23 -5 -41 -2 -28 1 -32 23 -32 14 0 25 3 26 8 6
61 3 72 -18 72 -12 0 -24 -3 -26 -7z"/>
<path d="M644 69 c-3 -6 -1 -15 6 -19 10 -6 9 -9 -1 -13 -11 -3 -9 -7 4 -12
24 -10 38 5 31 33 -7 23 -28 29 -40 11z"/>
<path d="M800 56 c0 -14 5 -28 10 -31 6 -4 10 7 10 24 0 17 -4 31 -10 31 -5 0
-10 -11 -10 -24z"/>
<path d="M864 65 c-13 -32 24 -63 41 -35 3 6 -1 10 -9 10 -9 0 -16 5 -16 10 0
6 7 10 15 10 8 0 15 5 15 10 0 16 -40 12 -46 -5z"/>
<path d="M950 66 c0 -8 6 -17 13 -19 7 -3 4 -6 -6 -6 -10 -1 -15 -6 -12 -12
13 -20 40 -4 40 24 1 19 -4 27 -17 27 -10 0 -18 -6 -18 -14z"/>
<path d="M1174 65 c-8 -21 2 -45 19 -45 21 0 38 25 31 44 -8 20 -43 21 -50 1z
m36 -9 c0 -3 -4 -8 -10 -11 -5 -3 -10 -1 -10 4 0 6 5 11 10 11 6 0 10 -2 10
-4z"/>
<path d="M1321 73 c2 -26 18 -47 37 -48 18 -1 22 4 22 27 0 33 -20 39 -21 6
l0 -23 -9 23 c-9 20 -31 32 -29 15z"/>
<path d="M1556 64 c-4 -10 -1 -24 7 -31 19 -19 49 -5 45 21 -4 27 -43 34 -52
10z m34 -14 c0 -5 -2 -10 -4 -10 -3 0 -8 5 -11 10 -3 6 -1 10 4 10 6 0 11 -4
11 -10z"/>
<path d="M1645 58 c11 -36 25 -45 26 -18 l0 25 10 -23 c11 -30 28 -20 21 13
-3 20 -10 25 -34 25 -26 0 -29 -3 -23 -22z"/>
<path d="M1744 69 c-3 -6 -1 -15 6 -19 10 -6 9 -9 -1 -13 -11 -3 -9 -7 4 -12
24 -10 38 5 31 33 -7 23 -28 29 -40 11z"/>
</g>
</svg>
